<?xml version="1.0" encoding="UTF-8" standalone="no" ?>
<!DOCTYPE svg PUBLIC "-//W3C//DTD SVG 1.1//EN" "http://www.w3.org/Graphics/SVG/1.1/DTD/svg11.dtd">
<svg xmlns="http://www.w3.org/2000/svg" xmlns:xlink="http://www.w3.org/1999/xlink" version="1.1" width="1280" height="1024" viewBox="0 0 1280 1024" xml:space="preserve">
<desc>Created with Fabric.js 5.3.0</desc>
<defs>
</defs>
<g transform="matrix(1 0 0 1 640 512)" id="background-logo"  >
<rect style="stroke: none; stroke-width: 0; stroke-dasharray: none; stroke-linecap: butt; stroke-dashoffset: 0; stroke-linejoin: miter; stroke-miterlimit: 4; fill: rgb(255,255,255); fill-opacity: 0; fill-rule: nonzero; opacity: 1;"  paint-order="stroke"  x="-640" y="-512" rx="0" ry="0" width="1280" height="1024" />
</g>
<g transform="matrix(2.806165264450247 0 0 2.806165264450247 536.4439838608213 580.449097164232)" id="shape-23ebe480-937f-49e2-bbf5-f0bf9e2db192"  >
<g style=""  paint-order="stroke"   >
		<g transform="matrix(1 0 0 1 0 0)" id="path-01"  >
<path style="stroke: none; stroke-width: 1; stroke-dasharray: none; stroke-linecap: butt; stroke-dashoffset: 0; stroke-linejoin: miter; stroke-miterlimit: 4; fill: rgb(253,252,253); fill-rule: nonzero; opacity: 1;"  paint-order="stroke"  transform=" translate(-110.67235500000001, -125.04192)" d="M 221.3447 0.04192 L 144.64114 250.04192 L 75.85387 250.04192 L 0 0.04192 L 102.34571 0.04192 C 102.34571 0.04192 71.64489999999999 24.153370000000002 63.005489999999995 73.10592 L 52.53415999999999 36.65687 C 54.169399999999996 31.207739999999998 58.395779999999995 21.64719 60.217459999999996 18.917759999999998 L 25.45948 18.917759999999998 L 89.85812 231.08227 L 130.67883 231.08227 L 195.80135 18.91776 L 161.02295 18.91776 L 102.93873 203.90934 L 93.14095 171.61063 L 147.07114 0.04192 L 221.34471000000002 0.04192 Z" stroke-linecap="round" />
</g>
</g>
</g>
<g transform="matrix(2.141292629696047 0 0 2.1412926296960473 907.7237987089151 255.36958486108193)" id="shape-42752fa1-b923-4497-9e6e-2459acbc8798"  >
<g style="opacity: 0.57;"  paint-order="stroke"   >
		<g transform="matrix(1 0 0 1 0 0)" id="Layer_1"  >
<linearGradient id="SVGID_557466" gradientUnits="userSpaceOnUse" gradientTransform="matrix(1 0 0 1 0 9.9999999747524e-7)"  x1="0" y1="0" x2="0" y2="174">
<stop offset="0%" style="stop-color:rgb(91,36,122);stop-opacity: 1"/>
<stop offset="100%" style="stop-color:rgb(27,206,223);stop-opacity: 1"/>
</linearGradient>
<path style="stroke: none; stroke-width: 0; stroke-dasharray: none; stroke-linecap: butt; stroke-dashoffset: 0; stroke-linejoin: miter; stroke-miterlimit: 4; fill: url(#SVGID_557466); fill-rule: nonzero; opacity: 1;"  paint-order="stroke"  transform=" translate(-87.189941, -87.190003)" d="M 109.079956 143.550049 L 129.179932 163.61999500000002 C 116.71997100000002 170.47998 102.409912 174.380005 87.189942 174.380005 C 47.109864 174.380005 13.349854000000008 147.34997600000003 3.159913000000003 110.51001000000001 L 29.909913000000003 110.51001000000001 C 30.049928 110.94995100000001 30.199952000000003 111.369995 30.369874000000003 111.72998100000001 C 40.389894000000005 132.95996100000002 62.010011000000006 147.679932 87.000001 147.679932 C 94.319947 147.679932 101.34985499999999 146.40991200000002 107.879884 144.090088 C 108.339967 143.929932 108.729982 143.73999 109.07995700000001 143.550049 Z M 156.690308 139.84668 L 174.34600899999998 157.61792 L 156.644715 174.38000499999998 L 112.11987399999998 129.619995 C 107.57995699999998 132.300049 102.58996699999999 134.28002899999998 97.27001999999999 135.39001499999998 C 94.02001999999999 136.070069 90.63989299999999 136.42993199999998 87.18994199999999 136.42993199999998 C 78.52001999999999 136.42993199999998 70.36987399999998 134.17993199999998 63.289917999999986 130.219971 C 56.219971999999984 126.27001999999999 50.20996199999999 120.61999499999999 45.819946999999985 113.84008799999998 C 42.95996199999998 109.40991199999998 40.78002999999998 104.49999999999999 39.44995199999998 99.26000999999998 L 0.839966 99.26000999999998 C 0.639893 97.80004899999997 0.46997099999999997 96.32006899999998 0.339966 94.84008799999998 C 0.32995599999999997 94.81005899999998 0.32995599999999997 94.77001999999997 0.32995599999999997 94.73998999999998 C 0.289917 94.27001899999998 0.24999999999999997 93.80004899999997 0.20996099999999995 93.33007799999997 L 0.11987299999999995 91.77001899999998 C 0.10986299999999995 91.55004799999998 0.09985299999999996 91.33007799999997 0.08996599999999995 91.10998499999998 C 0.05993699999999995 90.55004799999998 0.039916999999999946 89.99999999999999 0.03002899999999995 89.43994099999998 C 0.010008999999999952 88.68994099999998 -4.85722573273506e-17 87.93994099999998 -4.85722573273506e-17 87.18994099999998 C -4.85722573273506e-17 83.42993099999998 0.23998999999999995 79.71996999999998 0.699951 76.08007799999997 C 0.889892 74.63000499999997 1.109863 73.19995099999997 1.359863 71.77001899999998 C 1.4899900000000001 71.05004799999998 1.6198730000000001 70.33007799999997 1.770019 69.61999499999997 C 8.469971 37.030029 33.409912 11.01001 65.399902 2.75 C 65.399902 2.73999 65.40991199999999 2.73999 65.419922 2.75 C 66.809937 2.390015 68.20996099999999 2.070068 69.619873 1.7700200000000001 C 70.329956 1.6199960000000002 71.049927 1.4899910000000003 71.770019 1.3599860000000001 C 73.199951 1.1099860000000001 74.62988200000001 0.8900150000000001 76.07995600000001 0.7000130000000001 C 79.71997100000002 0.23999100000000012 83.42993200000001 0.000001000000000139778 87.189941 0.000001000000000139778 C 90.94995 0.000001000000000139778 94.659912 0.23999100000000015 98.299926 0.7000130000000001 C 99.749999 0.8900150000000001 101.179931 1.1099860000000001 102.609863 1.3599860000000001 C 103.32995600000001 1.489991 104.049926 1.6199960000000002 104.76000900000001 1.7700200000000001 C 106.16992100000002 2.070069 107.56994600000002 2.390015 108.95996000000001 2.75 C 108.96997 2.73999 108.97998000000001 2.73999 108.97998000000001 2.75 C 140.96997000000002 11.01001 165.90991200000002 37.030029 172.60986300000002 69.619995 C 172.76000900000003 70.330078 172.88989200000003 71.050049 173.02001900000002 71.770019 C 173.27001900000002 73.199951 173.48999 74.630004 173.679931 76.080078 C 174.139892 79.719971 174.379882 83.429932 174.379882 87.189941 C 174.379882 88.439941 174.349853 89.67993100000001 174.299926 90.909912 C 174.280029 91.419922 174.249999 91.939941 174.21997 92.449951 C 174.20996 92.640014 174.19995 92.840088 174.17993099999998 93.030029 C 174.159911 93.45996099999999 174.12988199999998 93.880005 174.08996499999998 94.310058 C 173.98998899999998 95.650024 173.84985299999997 96.97998 173.67993099999998 98.300048 C 173.53991599999998 99.369994 173.37988199999998 100.439941 173.20996 101.499999 C 173.19995 101.590087 173.17993099999998 101.68994 173.159911 101.780028 C 173.07995499999998 102.260008 172.98998899999998 102.73998900000001 172.909911 103.20996 C 172.87988199999998 103.359984 172.859862 103.49999899999999 172.819945 103.65002299999999 C 172.729979 104.140013 172.62988199999998 104.63000299999999 172.530028 105.109984 C 172.03991599999998 107.42993 171.45996 109.70996 170.79992499999997 111.94995 C 167.79992499999997 122.050048 163.02001799999996 131.390013 156.829954 139.599974 L 156.859861 139.63000300000002 C 156.804563 139.70336700000001 156.745847 139.77368 156.690305 139.84667800000003 Z M 111.824707 87.19043 C 111.824707 73.60693400000001 100.77417 62.555420000000005 87.19043 62.555420000000005 C 73.60669000000001 62.555420000000005 62.555176 73.60693400000001 62.555176 87.19043 C 62.555176 91.57299800000001 63.710938000000006 95.688721 65.725342 99.257813 C 69.95483399999999 106.751709 77.988526 111.825684 87.189697 111.825684 C 100.255859 111.825684 111.82470699999999 100.421143 111.82470699999999 87.19042999999999 Z M 136.42627 87.189941 C 136.42627 91.35253900000001 135.902344 95.394531 134.925049 99.257812 C 133.738281 103.950439 131.875244 108.37524400000001 129.447022 112.425537 L 130.86792 113.835937 L 139.147705 122.054687 C 145.859619 112.083984 149.781494 100.086669 149.781494 87.189941 C 149.781494 52.677002 121.70312500000001 24.598877 87.18969700000001 24.598877 C 56.88647400000001 24.598877 31.546631000000012 46.246826 25.81542900000001 74.889893 L 39.50952100000001 74.889893 C 44.98608300000001 53.673339999999996 64.286865 37.953858000000004 87.19042900000001 37.953858000000004 C 114.339111 37.953858000000004 136.42626900000002 60.041016 136.42626900000002 87.189942 Z" stroke-linecap="round" />
</g>
</g>
</g>
</svg>